<?xml version="1.0" encoding="UTF-8" standalone="no"?><!DOCTYPE svg PUBLIC "-//W3C//DTD SVG 1.1//EN" "http://www.w3.org/Graphics/SVG/1.1/DTD/svg11.dtd"><svg xmlns="http://www.w3.org/2000/svg" version="1.1" width="242" height="88"><path fill="none" stroke="#000000" stroke-width="2" stroke-linecap="round" stroke-linejoin="round" d="M 18 64 c 0.51 -0.3 18.96 -11.98 29 -17 c 8.71 -4.36 18.08 -6.78 27 -11 c 10.4 -4.93 20.8 -10.38 30 -16 c 2.3 -1.4 4.77 -3.82 6 -6 c 1.51 -2.68 2.8 -7.38 3 -10 c 0.07 -0.91 -1.14 -2.86 -2 -3 c -4.04 -0.64 -12.13 -1.22 -17 0 c -4.87 1.22 -10.4 5.19 -15 8 c -1.15 0.7 -2.61 1.96 -3 3 c -0.46 1.23 -0.28 3.45 0 5 c 0.36 1.95 1.12 4.11 2 6 c 1.43 3.07 3.66 5.94 5 9 c 0.95 2.16 1.62 4.71 2 7 c 0.26 1.57 0.22 3.37 0 5 c -0.44 3.32 -0.4 7.71 -2 10 c -2.46 3.51 -7.68 7.09 -12 10 c -9.05 6.11 -19.05 13.89 -28 17 c -5.74 1.99 -14.76 1.1 -21 0 c -4.26 -0.75 -9.24 -3.62 -13 -6 c -2.23 -1.41 -4.15 -3.92 -6 -6 c -0.79 -0.88 -1.88 -1.98 -2 -3 c -0.47 -3.96 -0.94 -9.93 0 -14 c 0.9 -3.9 3.65 -8.67 6 -12 c 1.37 -1.94 3.98 -3.9 6 -5 c 1.32 -0.72 3.33 -0.85 5 -1 c 1.96 -0.18 4.18 -0.33 6 0 c 1.63 0.3 4.09 0.79 5 2 c 6.26 8.27 14.27 25.83 20 31 c 1.77 1.6 7.93 -1.29 11 -3 c 5.38 -2.99 11.35 -9.68 16 -12 c 1.41 -0.71 4.42 0.21 6 1 c 2.03 1.02 4.15 5.18 6 5 c 6.22 -0.6 17.5 -6.25 25 -8 c 1.46 -0.34 3.76 0.25 5 1 c 1.72 1.03 3.29 4.29 5 5 c 1.7 0.71 5.14 0.7 7 0 c 2.88 -1.08 6.1 -4.98 9 -6 c 2.15 -0.76 5.76 -0.41 8 0 c 1.01 0.18 1.94 1.58 3 2 c 2.13 0.85 5.25 2.52 7 2 c 2.94 -0.86 6.94 -5.92 10 -7 c 1.77 -0.63 5.17 0.27 7 1 c 1.1 0.44 1.91 2.77 3 3 c 2.82 0.61 7.49 0.52 11 0 c 5.26 -0.78 11.03 -3.32 16 -4 c 1.83 -0.25 4.12 1 6 1 c 1.58 0 3.58 -0.35 5 -1 l 6 -4"/><path fill="none" stroke="#000000" stroke-width="2" stroke-linecap="round" stroke-linejoin="round" d="M 226 9 c 0 0.67 0.24 24.97 0 38 c -0.1 5.5 -0.33 10.61 -1 16 c -1.02 8.17 -4 24 -4 24"/><path fill="none" stroke="#000000" stroke-width="2" stroke-linecap="round" stroke-linejoin="round" d="M 216 47 c 0.02 -0.1 0.42 -4.08 1 -6 c 1.41 -4.7 3.17 -9.56 5 -14 c 0.44 -1.08 1.27 -2.76 2 -3 c 0.83 -0.28 3.16 0.26 4 1 c 1.74 1.55 3.23 5.01 5 7 c 0.74 0.83 2.19 1.19 3 2 c 1.76 1.76 5.64 5.28 5 6 c -1.09 1.23 -9.06 1.77 -13 3 l -3 2"/></svg>